<svg width="120" height="55" viewBox="0 0 120 55" fill="none" xmlns="http://www.w3.org/2000/svg">
<rect y="38.3194" width="15.9664" height="15.9664" fill="#247B7B"/>
<rect x="19.1597" y="19.1597" width="15.9664" height="15.9664" fill="#247B7B"/>
<rect x="19.1597" y="38.3194" width="15.9664" height="15.9664" fill="#247B7B"/>
<rect x="38.3195" y="19.1597" width="15.9664" height="15.9664" fill="#247B7B"/>
<rect x="38.3195" width="15.9664" height="15.9664" fill="#C4C4C4"/>
<rect x="38.3195" width="15.9664" height="15.9664" fill="#247B7B"/>
<path d="M42.4385 50.2764C41.7871 50.2764 41.1908 50.096 40.6496 49.7353C40.1184 49.3745 39.6925 48.8834 39.3718 48.262C39.0511 47.6407 38.8907 46.9391 38.8907 46.1574C38.8907 45.3657 39.0511 44.6641 39.3718 44.0528C39.7025 43.4314 40.1435 42.9454 40.6947 42.5946C41.2559 42.2438 41.8823 42.0684 42.5738 42.0684C42.9847 42.0684 43.3605 42.1286 43.7013 42.2488C44.042 42.3691 44.3377 42.5395 44.5882 42.76C44.8488 42.9704 45.0592 43.216 45.2196 43.4966C45.39 43.7772 45.4952 44.0778 45.5353 44.3985L45.1895 44.2783V42.2338H46.753V50.1261H45.1895V48.247L45.5503 48.1418C45.4902 48.4124 45.3649 48.6779 45.1745 48.9385C44.9941 49.1891 44.7586 49.4146 44.4679 49.615C44.1873 49.8154 43.8716 49.9758 43.5209 50.096C43.1801 50.2163 42.8193 50.2764 42.4385 50.2764ZM42.8444 48.8483C43.3154 48.8483 43.7313 48.7331 44.0921 48.5026C44.4529 48.272 44.7335 47.9564 44.934 47.5555C45.1444 47.1446 45.2497 46.6786 45.2497 46.1574C45.2497 45.6463 45.1444 45.1903 44.934 44.7894C44.7335 44.3885 44.4529 44.0728 44.0921 43.8423C43.7313 43.6118 43.3154 43.4966 42.8444 43.4966C42.3834 43.4966 41.9725 43.6118 41.6117 43.8423C41.2609 44.0728 40.9803 44.3885 40.7698 44.7894C40.5694 45.1903 40.4692 45.6463 40.4692 46.1574C40.4692 46.6786 40.5694 47.1446 40.7698 47.5555C40.9803 47.9564 41.2609 48.272 41.6117 48.5026C41.9725 48.7331 42.3834 48.8483 42.8444 48.8483ZM48.9149 53.4334V42.2338H50.4783V44.0378L50.2378 43.9025C50.2979 43.6018 50.4683 43.3162 50.7489 43.0456C51.0295 42.765 51.3703 42.5395 51.7712 42.3691C52.1821 42.1887 52.603 42.0985 53.0339 42.0985C53.7455 42.0985 54.3769 42.2739 54.9281 42.6247C55.4793 42.9754 55.9152 43.4565 56.236 44.0678C56.5567 44.6792 56.717 45.3807 56.717 46.1724C56.717 46.9542 56.5567 47.6557 56.236 48.2771C55.9253 48.8884 55.4943 49.3745 54.9431 49.7353C54.3919 50.086 53.7705 50.2614 53.079 50.2614C52.618 50.2614 52.172 50.1712 51.7411 49.9908C51.3101 49.8004 50.9443 49.5599 50.6437 49.2692C50.343 48.9786 50.1576 48.6779 50.0875 48.3673L50.4783 48.1568V53.4334H48.9149ZM52.8235 48.8333C53.2845 48.8333 53.6954 48.718 54.0562 48.4875C54.417 48.257 54.7026 47.9413 54.913 47.5404C55.1235 47.1396 55.2287 46.6836 55.2287 46.1724C55.2287 45.6613 55.1235 45.2103 54.913 44.8195C54.7126 44.4186 54.432 44.1029 54.0712 43.8724C53.7104 43.6419 53.2945 43.5266 52.8235 43.5266C52.3524 43.5266 51.9365 43.6419 51.5757 43.8724C51.2149 44.0929 50.9293 44.4036 50.7188 44.8044C50.5084 45.2053 50.4032 45.6613 50.4032 46.1724C50.4032 46.6836 50.5084 47.1396 50.7188 47.5404C50.9293 47.9413 51.2149 48.257 51.5757 48.4875C51.9365 48.718 52.3524 48.8333 52.8235 48.8333ZM58.3986 53.4334V42.2338H59.962V44.0378L59.7215 43.9025C59.7816 43.6018 59.952 43.3162 60.2326 43.0456C60.5132 42.765 60.854 42.5395 61.2549 42.3691C61.6658 42.1887 62.0867 42.0985 62.5176 42.0985C63.2292 42.0985 63.8606 42.2739 64.4118 42.6247C64.963 42.9754 65.3989 43.4565 65.7196 44.0678C66.0404 44.6792 66.2007 45.3807 66.2007 46.1724C66.2007 46.9542 66.0404 47.6557 65.7196 48.2771C65.409 48.8884 64.978 49.3745 64.4268 49.7353C63.8756 50.086 63.2542 50.2614 62.5627 50.2614C62.1017 50.2614 61.6557 50.1712 61.2248 49.9908C60.7938 49.8004 60.428 49.5599 60.1274 49.2692C59.8267 48.9786 59.6413 48.6779 59.5712 48.3673L59.962 48.1568V53.4334H58.3986ZM62.3072 48.8333C62.7682 48.8333 63.1791 48.718 63.5399 48.4875C63.9007 48.257 64.1863 47.9413 64.3967 47.5404C64.6072 47.1396 64.7124 46.6836 64.7124 46.1724C64.7124 45.6613 64.6072 45.2103 64.3967 44.8195C64.1963 44.4186 63.9157 44.1029 63.5549 43.8724C63.1941 43.6419 62.7782 43.5266 62.3072 43.5266C61.8361 43.5266 61.4202 43.6419 61.0594 43.8724C60.6986 44.0929 60.413 44.4036 60.2025 44.8044C59.9921 45.2053 59.8869 45.6613 59.8869 46.1724C59.8869 46.6836 59.9921 47.1396 60.2025 47.5404C60.413 47.9413 60.6986 48.257 61.0594 48.4875C61.4202 48.718 61.8361 48.8333 62.3072 48.8333ZM68.8594 50.1261V40.2194H70.4078V50.1261H68.8594ZM67.2208 43.7371V42.2338H72.2418V43.7371H67.2208ZM73.6518 50.1261V42.2338H75.2152V44.7142L75.0649 44.1129C75.1751 43.7321 75.3605 43.3863 75.6211 43.0756C75.8917 42.765 76.1974 42.5194 76.5381 42.339C76.8889 42.1586 77.2497 42.0684 77.6205 42.0684C77.7909 42.0684 77.9512 42.0835 78.1015 42.1135C78.2619 42.1436 78.3872 42.1787 78.4774 42.2188L78.0715 43.9025C77.9512 43.8523 77.8159 43.8123 77.6656 43.7822C77.5253 43.7421 77.385 43.7221 77.2447 43.7221C76.9741 43.7221 76.7135 43.7772 76.4629 43.8874C76.2224 43.9876 76.0069 44.133 75.8165 44.3234C75.6361 44.5038 75.4908 44.7193 75.3806 44.9698C75.2703 45.2103 75.2152 45.4759 75.2152 45.7665V50.1261H73.6518ZM82.4139 50.2764C81.7625 50.2764 81.1662 50.096 80.625 49.7353C80.0938 49.3745 79.6679 48.8834 79.3472 48.262C79.0265 47.6407 78.8661 46.9391 78.8661 46.1574C78.8661 45.3657 79.0265 44.6641 79.3472 44.0528C79.6779 43.4314 80.1189 42.9454 80.6701 42.5946C81.2313 42.2438 81.8577 42.0684 82.5492 42.0684C82.9601 42.0684 83.3359 42.1286 83.6767 42.2488C84.0174 42.3691 84.3131 42.5395 84.5636 42.76C84.8242 42.9704 85.0346 43.216 85.195 43.4966C85.3654 43.7772 85.4706 44.0778 85.5107 44.3985L85.1649 44.2783V42.2338H86.7284V50.1261H85.1649V48.247L85.5257 48.1418C85.4656 48.4124 85.3403 48.6779 85.1499 48.9385C84.9695 49.1891 84.734 49.4146 84.4433 49.615C84.1627 49.8154 83.847 49.9758 83.4963 50.096C83.1555 50.2163 82.7947 50.2764 82.4139 50.2764ZM82.8198 48.8483C83.2908 48.8483 83.7067 48.7331 84.0675 48.5026C84.4283 48.272 84.7089 47.9564 84.9094 47.5555C85.1198 47.1446 85.2251 46.6786 85.2251 46.1574C85.2251 45.6463 85.1198 45.1903 84.9094 44.7894C84.7089 44.3885 84.4283 44.0728 84.0675 43.8423C83.7067 43.6118 83.2908 43.4966 82.8198 43.4966C82.3588 43.4966 81.9479 43.6118 81.5871 43.8423C81.2363 44.0728 80.9557 44.3885 80.7452 44.7894C80.5448 45.1903 80.4446 45.6463 80.4446 46.1574C80.4446 46.6786 80.5448 47.1446 80.7452 47.5555C80.9557 47.9564 81.2363 48.272 81.5871 48.5026C81.9479 48.7331 82.3588 48.8483 82.8198 48.8483ZM92.2426 50.2764C91.511 50.2764 90.8546 50.096 90.2733 49.7353C89.7021 49.3745 89.2461 48.8834 88.9053 48.262C88.5746 47.6407 88.4092 46.9441 88.4092 46.1724C88.4092 45.4007 88.5746 44.7042 88.9053 44.0829C89.2461 43.4615 89.7021 42.9704 90.2733 42.6096C90.8546 42.2488 91.511 42.0684 92.2426 42.0684C92.9442 42.0684 93.5806 42.2138 94.1518 42.5044C94.7331 42.785 95.1741 43.1709 95.4747 43.6619L94.6179 44.7142C94.4575 44.4837 94.252 44.2733 94.0015 44.0829C93.7509 43.8924 93.4854 43.7421 93.2048 43.6319C92.9241 43.5216 92.6535 43.4665 92.393 43.4665C91.9119 43.4665 91.481 43.5868 91.1001 43.8273C90.7293 44.0578 90.4337 44.3785 90.2132 44.7894C89.9927 45.2003 89.8825 45.6613 89.8825 46.1724C89.8825 46.6836 89.9977 47.1446 90.2282 47.5555C90.4587 47.9564 90.7644 48.2771 91.1452 48.5176C91.5261 48.7581 91.947 48.8784 92.408 48.8784C92.6786 48.8784 92.9392 48.8333 93.1897 48.7431C93.4503 48.6529 93.7008 48.5176 93.9414 48.3372C94.1819 48.1568 94.4074 47.9363 94.6179 47.6757L95.4747 48.728C95.154 49.179 94.693 49.5498 94.0917 49.8405C93.5004 50.1311 92.884 50.2764 92.2426 50.2764ZM98.3484 47.6607L98.2732 45.977L102.046 42.2338H104.136L98.3484 47.6607ZM96.9353 50.1261V39.0017H98.4837V50.1261H96.9353ZM102.257 50.1261L99.2804 46.6535L100.378 45.6463L104.241 50.1261H102.257ZM108.825 50.2764C108.013 50.2764 107.291 50.1061 106.66 49.7653C106.039 49.4146 105.548 48.9385 105.187 48.3372C104.836 47.7359 104.661 47.0444 104.661 46.2626C104.661 45.6413 104.761 45.075 104.961 44.5639C105.162 44.0528 105.437 43.6118 105.788 43.241C106.149 42.8602 106.575 42.5695 107.066 42.3691C107.567 42.1586 108.108 42.0534 108.69 42.0534C109.201 42.0534 109.677 42.1536 110.118 42.3541C110.559 42.5445 110.939 42.8101 111.26 43.1508C111.591 43.4916 111.841 43.8974 112.012 44.3685C112.192 44.8295 112.277 45.3356 112.267 45.8868L112.252 46.5483H105.803L105.457 45.3156H110.914L110.689 45.5711V45.2103C110.659 44.8796 110.549 44.584 110.358 44.3234C110.168 44.0628 109.927 43.8574 109.637 43.707C109.346 43.5567 109.03 43.4815 108.69 43.4815C108.148 43.4815 107.692 43.5868 107.322 43.7972C106.951 43.9977 106.67 44.2983 106.48 44.6992C106.289 45.0901 106.194 45.5761 106.194 46.1574C106.194 46.7086 106.309 47.1897 106.54 47.6006C106.77 48.0015 107.096 48.3121 107.517 48.5326C107.938 48.7531 108.424 48.8633 108.975 48.8633C109.366 48.8633 109.727 48.7982 110.058 48.6679C110.398 48.5376 110.764 48.3021 111.155 47.9614L111.937 49.0588C111.696 49.2993 111.4 49.5098 111.05 49.6902C110.709 49.8706 110.343 50.0159 109.952 50.1261C109.571 50.2263 109.196 50.2764 108.825 50.2764ZM113.95 50.1261V42.2338H115.514V44.7142L115.363 44.1129C115.473 43.7321 115.659 43.3863 115.919 43.0756C116.19 42.765 116.496 42.5194 116.836 42.339C117.187 42.1586 117.548 42.0684 117.919 42.0684C118.089 42.0684 118.25 42.0835 118.4 42.1135C118.56 42.1436 118.686 42.1787 118.776 42.2188L118.37 43.9025C118.25 43.8523 118.114 43.8123 117.964 43.7822C117.824 43.7421 117.683 43.7221 117.543 43.7221C117.272 43.7221 117.012 43.7772 116.761 43.8874C116.521 43.9876 116.305 44.133 116.115 44.3234C115.934 44.5038 115.789 44.7193 115.679 44.9698C115.569 45.2103 115.514 45.4759 115.514 45.7665V50.1261H113.95Z" fill="white"/>
</svg>
