<svg width="162" height="74" viewBox="0 0 162 74" fill="none" xmlns="http://www.w3.org/2000/svg">
<rect y="51.84" width="21.6" height="21.6" fill="#247B7B"/>
<rect x="25.9199" y="25.92" width="21.6" height="21.6" fill="#247B7B"/>
<rect x="25.9199" y="51.84" width="21.6" height="21.6" fill="#247B7B"/>
<rect x="51.8401" y="25.92" width="21.6" height="21.6" fill="#247B7B"/>
<rect x="51.8401" width="21.6" height="21.6" fill="#247B7B"/>
<path d="M57.4125 67.7234C56.5312 67.7234 55.7245 67.4793 54.9924 66.9912C54.2738 66.5031 53.6976 65.8388 53.2637 64.9982C52.8298 64.1576 52.6129 63.2085 52.6129 62.151C52.6129 61.0799 52.8298 60.1308 53.2637 59.3037C53.7111 58.4631 54.3077 57.8056 55.0534 57.331C55.8126 56.8565 56.66 56.6192 57.5955 56.6192C58.1514 56.6192 58.6598 56.7006 59.1208 56.8633C59.5818 57.026 59.9818 57.2565 60.3207 57.5547C60.6732 57.8395 60.9579 58.1716 61.1749 58.5513C61.4054 58.9309 61.5477 59.3376 61.602 59.7715L61.1342 59.6088V56.8429H63.2493V67.52H61.1342V64.9778L61.6223 64.8355C61.5409 65.2015 61.3715 65.5608 61.1139 65.9133C60.8698 66.2523 60.5512 66.5574 60.158 66.8285C59.7784 67.0997 59.3513 67.3166 58.8768 67.4793C58.4158 67.642 57.9277 67.7234 57.4125 67.7234ZM57.9616 65.7913C58.5988 65.7913 59.1615 65.6354 59.6496 65.3236C60.1377 65.0117 60.5173 64.5846 60.7885 64.0423C61.0732 63.4864 61.2156 62.856 61.2156 62.151C61.2156 61.4595 61.0732 60.8426 60.7885 60.3003C60.5173 59.7579 60.1377 59.3309 59.6496 59.019C59.1615 58.7072 58.5988 58.5513 57.9616 58.5513C57.3379 58.5513 56.782 58.7072 56.2939 59.019C55.8194 59.3309 55.4398 59.7579 55.1551 60.3003C54.8839 60.8426 54.7483 61.4595 54.7483 62.151C54.7483 62.856 54.8839 63.4864 55.1551 64.0423C55.4398 64.5846 55.8194 65.0117 56.2939 65.3236C56.782 65.6354 57.3379 65.7913 57.9616 65.7913ZM66.174 71.9942V56.8429H68.2891V59.2834L67.9637 59.1004C68.045 58.6936 68.2755 58.3072 68.6552 57.9412C69.0348 57.5615 69.4958 57.2565 70.0381 57.026C70.594 56.7819 71.1634 56.6599 71.7464 56.6599C72.7091 56.6599 73.5632 56.8972 74.3089 57.3717C75.0546 57.8462 75.6444 58.497 76.0783 59.3241C76.5121 60.1511 76.729 61.1002 76.729 62.1713C76.729 63.2288 76.5121 64.1779 76.0783 65.0185C75.6579 65.8456 75.0749 66.5031 74.3293 66.9912C73.5836 67.4658 72.7429 67.703 71.8074 67.703C71.1838 67.703 70.5804 67.581 69.9974 67.337C69.4144 67.0793 68.9195 66.754 68.5128 66.3608C68.1061 65.9676 67.8552 65.5608 67.7603 65.1405L68.2891 64.8558V71.9942H66.174ZM71.4617 65.771C72.0854 65.771 72.6413 65.6151 73.1294 65.3032C73.6174 64.9914 74.0039 64.5643 74.2886 64.022C74.5733 63.4797 74.7157 62.8628 74.7157 62.1713C74.7157 61.4798 74.5733 60.8697 74.2886 60.3409C74.0174 59.7986 73.6378 59.3715 73.1497 59.0597C72.6616 58.7479 72.0989 58.5919 71.4617 58.5919C70.8245 58.5919 70.2618 58.7479 69.7737 59.0597C69.2856 59.358 68.8992 59.7783 68.6145 60.3206C68.3298 60.8629 68.1874 61.4798 68.1874 62.1713C68.1874 62.8628 68.3298 63.4797 68.6145 64.022C68.8992 64.5643 69.2856 64.9914 69.7737 65.3032C70.2618 65.6151 70.8245 65.771 71.4617 65.771ZM79.004 71.9942V56.8429H81.119V59.2834L80.7936 59.1004C80.875 58.6936 81.1055 58.3072 81.4851 57.9412C81.8647 57.5615 82.3257 57.2565 82.868 57.026C83.4239 56.7819 83.9934 56.6599 84.5764 56.6599C85.539 56.6599 86.3931 56.8972 87.1388 57.3717C87.8845 57.8462 88.4743 58.497 88.9082 59.3241C89.342 60.1511 89.559 61.1002 89.559 62.1713C89.559 63.2288 89.342 64.1779 88.9082 65.0185C88.4879 65.8456 87.9049 66.5031 87.1592 66.9912C86.4135 67.4658 85.5729 67.703 84.6374 67.703C84.0137 67.703 83.4104 67.581 82.8274 67.337C82.2444 67.0793 81.7495 66.754 81.3427 66.3608C80.936 65.9676 80.6852 65.5608 80.5903 65.1405L81.119 64.8558V71.9942H79.004ZM84.2916 65.771C84.9153 65.771 85.4712 65.6151 85.9593 65.3032C86.4474 64.9914 86.8338 64.5643 87.1185 64.022C87.4032 63.4797 87.5456 62.8628 87.5456 62.1713C87.5456 61.4798 87.4032 60.8697 87.1185 60.3409C86.8473 59.7986 86.4677 59.3715 85.9796 59.0597C85.4915 58.7479 84.9289 58.5919 84.2916 58.5919C83.6544 58.5919 83.0917 58.7479 82.6036 59.0597C82.1155 59.358 81.7291 59.7783 81.4444 60.3206C81.1597 60.8629 81.0173 61.4798 81.0173 62.1713C81.0173 62.8628 81.1597 63.4797 81.4444 64.022C81.7291 64.5643 82.1155 64.9914 82.6036 65.3032C83.0917 65.6151 83.6544 65.771 84.2916 65.771ZM93.1558 67.52V54.1178H95.2505V67.52H93.1558ZM90.939 58.8767V56.8429H97.7317V58.8767H90.939ZM99.6391 67.52V56.8429H101.754V60.1986L101.551 59.3851C101.7 58.8699 101.951 58.4021 102.303 57.9818C102.669 57.5615 103.083 57.2294 103.544 56.9853C104.018 56.7413 104.506 56.6192 105.008 56.6192C105.239 56.6192 105.456 56.6396 105.659 56.6802C105.876 56.7209 106.045 56.7684 106.167 56.8226L105.618 59.1004C105.456 59.0326 105.273 58.9784 105.069 58.9377C104.879 58.8834 104.69 58.8563 104.5 58.8563C104.134 58.8563 103.781 58.9309 103.442 59.08C103.117 59.2156 102.825 59.4122 102.568 59.6698C102.324 59.9139 102.127 60.2054 101.978 60.5443C101.829 60.8697 101.754 61.229 101.754 61.6222V67.52H99.6391ZM111.493 67.7234C110.612 67.7234 109.805 67.4793 109.073 66.9912C108.354 66.5031 107.778 65.8388 107.344 64.9982C106.91 64.1576 106.693 63.2085 106.693 62.151C106.693 61.0799 106.91 60.1308 107.344 59.3037C107.791 58.4631 108.388 57.8056 109.134 57.331C109.893 56.8565 110.74 56.6192 111.676 56.6192C112.232 56.6192 112.74 56.7006 113.201 56.8633C113.662 57.026 114.062 57.2565 114.401 57.5547C114.754 57.8395 115.038 58.1716 115.255 58.5513C115.486 58.9309 115.628 59.3376 115.682 59.7715L115.215 59.6088V56.8429H117.33V67.52H115.215V64.9778L115.703 64.8355C115.621 65.2015 115.452 65.5608 115.194 65.9133C114.95 66.2523 114.632 66.5574 114.238 66.8285C113.859 67.0997 113.432 67.3166 112.957 67.4793C112.496 67.642 112.008 67.7234 111.493 67.7234ZM112.042 65.7913C112.679 65.7913 113.242 65.6354 113.73 65.3236C114.218 65.0117 114.598 64.5846 114.869 64.0423C115.154 63.4864 115.296 62.856 115.296 62.151C115.296 61.4595 115.154 60.8426 114.869 60.3003C114.598 59.7579 114.218 59.3309 113.73 59.019C113.242 58.7072 112.679 58.5513 112.042 58.5513C111.418 58.5513 110.862 58.7072 110.374 59.019C109.9 59.3309 109.52 59.7579 109.235 60.3003C108.964 60.8426 108.829 61.4595 108.829 62.151C108.829 62.856 108.964 63.4864 109.235 64.0423C109.52 64.5846 109.9 65.0117 110.374 65.3236C110.862 65.6354 111.418 65.7913 112.042 65.7913ZM124.79 67.7234C123.8 67.7234 122.912 67.4793 122.125 66.9912C121.353 66.5031 120.736 65.8388 120.275 64.9982C119.827 64.1576 119.604 63.2153 119.604 62.1713C119.604 61.1273 119.827 60.185 120.275 59.3444C120.736 58.5038 121.353 57.8395 122.125 57.3514C122.912 56.8633 123.8 56.6192 124.79 56.6192C125.739 56.6192 126.6 56.8158 127.372 57.209C128.159 57.5886 128.755 58.1106 129.162 58.775L128.003 60.1986C127.786 59.8867 127.508 59.602 127.169 59.3444C126.83 59.0868 126.471 58.8834 126.091 58.7343C125.712 58.5852 125.345 58.5106 124.993 58.5106C124.342 58.5106 123.759 58.6733 123.244 58.9987C122.742 59.3105 122.342 59.7444 122.044 60.3003C121.746 60.8562 121.597 61.4798 121.597 62.1713C121.597 62.8628 121.753 63.4864 122.064 64.0423C122.376 64.5846 122.79 65.0185 123.305 65.3439C123.82 65.6693 124.39 65.832 125.013 65.832C125.379 65.832 125.732 65.771 126.071 65.649C126.423 65.5269 126.762 65.3439 127.088 65.0999C127.413 64.8558 127.718 64.5575 128.003 64.205L129.162 65.6286C128.728 66.2387 128.105 66.7404 127.291 67.1336C126.491 67.5268 125.657 67.7234 124.79 67.7234ZM133.05 64.1847L132.948 61.9069L138.053 56.8429H140.879L133.05 64.1847ZM131.138 67.52V52.4704H133.233V67.52H131.138ZM138.337 67.52L134.311 62.8221L135.795 61.4595L141.022 67.52H138.337ZM147.223 67.7234C146.124 67.7234 145.148 67.4929 144.294 67.0319C143.453 66.5574 142.789 65.9133 142.301 65.0999C141.826 64.2864 141.589 63.3509 141.589 62.2933C141.589 61.4527 141.725 60.6867 141.996 59.9952C142.267 59.3037 142.64 58.7072 143.115 58.2055C143.603 57.6903 144.179 57.2971 144.843 57.026C145.521 56.7413 146.253 56.5989 147.04 56.5989C147.731 56.5989 148.375 56.7345 148.972 57.0056C149.568 57.2632 150.083 57.6225 150.517 58.0835C150.965 58.5445 151.304 59.0936 151.534 59.7308C151.778 60.3545 151.893 61.0392 151.88 61.7849L151.86 62.6797H143.135L142.667 61.0121H150.05L149.744 61.3578V60.8697C149.704 60.4223 149.555 60.0223 149.297 59.6698C149.039 59.3173 148.714 59.0394 148.321 58.836C147.928 58.6326 147.501 58.5309 147.04 58.5309C146.307 58.5309 145.691 58.6733 145.189 58.958C144.687 59.2292 144.308 59.6359 144.05 60.1782C143.792 60.707 143.664 61.3646 143.664 62.151C143.664 62.8967 143.82 63.5475 144.131 64.1033C144.443 64.6457 144.884 65.066 145.453 65.3642C146.023 65.6625 146.68 65.8117 147.426 65.8117C147.955 65.8117 148.443 65.7235 148.89 65.5473C149.351 65.371 149.846 65.0524 150.375 64.5914L151.432 66.076C151.107 66.4014 150.707 66.6862 150.233 66.9302C149.772 67.1743 149.277 67.3708 148.748 67.52C148.233 67.6556 147.724 67.7234 147.223 67.7234ZM154.156 67.52V56.8429H156.271V60.1986L156.068 59.3851C156.217 58.8699 156.468 58.4021 156.821 57.9818C157.187 57.5615 157.6 57.2294 158.061 56.9853C158.536 56.7413 159.024 56.6192 159.525 56.6192C159.756 56.6192 159.973 56.6396 160.176 56.6802C160.393 56.7209 160.563 56.7684 160.685 56.8226L160.136 59.1004C159.973 59.0326 159.79 58.9784 159.586 58.9377C159.397 58.8834 159.207 58.8563 159.017 58.8563C158.651 58.8563 158.298 58.9309 157.959 59.08C157.634 59.2156 157.343 59.4122 157.085 59.6698C156.841 59.9139 156.644 60.2054 156.495 60.5443C156.346 60.8697 156.271 61.229 156.271 61.6222V67.52H154.156Z" fill="#0D5C63"/>
</svg>
